<?xml version="1.0" encoding="utf-8"?>
<!-- Generator: Adobe Illustrator 25.1.0, SVG Export Plug-In . SVG Version: 6.00 Build 0)  -->
<svg version="1.1" id="Layer_1" xmlns="http://www.w3.org/2000/svg" xmlns:xlink="http://www.w3.org/1999/xlink" x="0px" y="0px"
	 viewBox="0 0 576 512" style="enable-background:new 0 0 576 512;" xml:space="preserve">
<path d="M241.9,48.1L141.8,148.2H27c-14.9,0-27,12.1-27,27v162c0,14.9,12.1,27,27,27h114.8l100.1,100.1c16.9,16.9,46.1,5,46.1-19.1
	v-378C288,43.1,258.8,31.3,241.9,48.1z M519.3,256.2l51.3-51.3c7.1-7.1,7.1-18.6,0-25.7L545,153.5c-7.1-7.1-18.6-7.1-25.7,0
	L468,204.9l-51.3-51.3c-7.1-7.1-18.6-7.1-25.7,0l-25.7,25.7c-7.1,7.1-7.1,18.6,0,25.7l51.3,51.3l-51.3,51.3
	c-7.1,7.1-7.1,18.6,0,25.7l25.7,25.7c7.1,7.1,18.6,7.1,25.7,0l51.3-51.3l51.3,51.3c7.1,7.1,18.6,7.1,25.7,0l25.7-25.7
	c7.1-7.1,7.1-18.6,0-25.7L519.3,256.2z"/>
</svg>
